<svg width="312" height="52" viewBox="0 0 312 52" fill="none" xmlns="http://www.w3.org/2000/svg">
<rect width="312" height="52" rx="8" fill="black"/>
<path d="M78.6953 32H76.5234L80.5078 20.6875H83.0078L87.0078 32H84.8359L83.8906 29.2031H79.6328L78.6953 32ZM80.1797 27.5625H83.3438L81.8047 23H81.7109L80.1797 27.5625ZM88.2578 35.1875V23.5156H90.2109V24.9062H90.3359C90.6406 24.3047 91.2656 23.4062 92.7734 23.4062C94.7266 23.4062 96.2656 24.9375 96.2734 27.7656C96.2656 30.5547 94.7734 32.1484 92.7734 32.1562C91.3125 32.1484 90.6484 31.2812 90.3359 30.6562H90.2578V35.1875H88.2578ZM90.2109 27.75C90.2188 29.4062 90.9375 30.5156 92.2266 30.5156C93.5469 30.5156 94.2422 29.3516 94.2422 27.75C94.2422 26.1719 93.5625 25.0391 92.2266 25.0312C90.9219 25.0391 90.2188 26.1016 90.2109 27.75ZM97.8359 35.1875V23.5156H99.7891V24.9062H99.9141C100.219 24.3047 100.844 23.4062 102.352 23.4062C104.305 23.4062 105.844 24.9375 105.852 27.7656C105.844 30.5547 104.352 32.1484 102.352 32.1562C100.891 32.1484 100.227 31.2812 99.9141 30.6562H99.8359V35.1875H97.8359ZM99.7891 27.75C99.7969 29.4062 100.516 30.5156 101.805 30.5156C103.125 30.5156 103.82 29.3516 103.82 27.75C103.82 26.1719 103.141 25.0391 101.805 25.0312C100.5 25.0391 99.7969 26.1016 99.7891 27.75ZM117.461 23.7969C117.359 22.8203 116.539 22.2578 115.32 22.2656C114.031 22.2578 113.266 22.8828 113.258 23.7344C113.25 24.6875 114.258 25.0781 115.195 25.2969L116.258 25.5781C117.945 25.9688 119.57 26.8594 119.57 28.8281C119.57 30.8125 118 32.1719 115.289 32.1719C112.656 32.1719 110.984 30.9062 110.898 28.6719H112.898C112.992 29.8516 113.984 30.4297 115.273 30.4375C116.609 30.4297 117.531 29.7812 117.539 28.8125C117.531 27.9219 116.719 27.5469 115.492 27.2344L114.211 26.9062C112.352 26.4219 111.195 25.4844 111.195 23.8594C111.195 21.8594 112.969 20.5312 115.352 20.5312C117.75 20.5312 119.383 21.8828 119.414 23.7969H117.461ZM125.398 23.5156V25.0469H123.727V29.4531C123.727 30.2656 124.133 30.4297 124.633 30.4375C124.867 30.4453 125.258 30.4219 125.508 30.4062V32.0312C125.273 32.0703 124.891 32.1172 124.383 32.1094C122.883 32.1172 121.727 31.375 121.742 29.7812V25.0469H120.523V23.5156H121.742V21.4844H123.727V23.5156H125.398ZM130.539 32.1719C128.062 32.1719 126.477 30.4141 126.477 27.7969C126.477 25.1562 128.062 23.4062 130.539 23.4062C133.023 23.4062 134.609 25.1562 134.602 27.7969C134.609 30.4141 133.023 32.1719 130.539 32.1719ZM128.492 27.7812C128.492 29.3359 129.172 30.5781 130.555 30.5781C131.914 30.5781 132.594 29.3359 132.586 27.7812C132.594 26.2266 131.914 24.9766 130.555 24.9844C129.172 24.9766 128.492 26.2266 128.492 27.7812ZM136.148 32V23.5156H138.086V24.9219H138.18C138.484 23.9453 139.297 23.3906 140.273 23.3906C140.492 23.3906 140.805 23.4141 140.992 23.4375V25.2812C140.812 25.2188 140.398 25.1641 140.07 25.1562C138.961 25.1641 138.148 25.9297 138.148 27V32H136.148ZM145.664 32.1719C143.109 32.1719 141.539 30.4688 141.539 27.8125C141.539 25.1875 143.133 23.4062 145.555 23.4062C147.633 23.4062 149.43 24.7109 149.43 27.6875V28.3125H143.508C143.539 29.7578 144.391 30.6172 145.68 30.6094C146.555 30.6172 147.141 30.2422 147.398 29.7344H149.352C148.992 31.2031 147.633 32.1719 145.664 32.1719ZM143.516 26.9531H147.523C147.516 25.7969 146.734 24.9531 145.586 24.9531C144.391 24.9531 143.586 25.875 143.516 26.9531ZM162.68 19.2656V33.3906H161.008V19.2656H162.68ZM150.633 25.375C150.633 22.2656 151.836 20.3359 153.68 20.3438C155.391 20.3359 156.555 21.9375 156.758 24.5781H158.117V19.5156H159.773V32.7031H158.117V25.9844H156.773C156.609 28.7422 155.43 30.4297 153.68 30.4219C151.836 30.4297 150.633 28.4922 150.633 25.375ZM152.242 25.375C152.234 27.5859 152.781 28.7734 153.68 28.7656C154.617 28.7734 155.172 27.5859 155.18 25.375C155.172 23.1719 154.617 21.9766 153.68 21.9844C152.781 21.9766 152.234 23.1719 152.242 25.375ZM169.539 22.6562C169.531 25.2812 170.789 27.8594 173.039 28.8438L171.992 30.2344C170.398 29.4531 169.273 27.9531 168.672 26.1016C168.055 28.0547 166.898 29.6797 165.273 30.5L164.18 29.0938C166.484 28.0156 167.766 25.2969 167.773 22.6562V20.4062H169.539V22.6562ZM171.477 25.2344V23.8281H174.445V19.2656H176.164V33.4062H174.445V25.2344H171.477ZM193.008 19.2656V24.625H195.18V26.0469H193.008V33.4062H191.273V19.2656H193.008ZM182.523 29.9531V20.6094H189.133V22.0156H184.258V28.5C186.453 28.4922 188.195 28.3828 190.133 28.0469L190.336 29.5156C188.141 29.8906 186.242 29.9531 183.695 29.9531H182.523ZM208.664 26.25V27.6406H203.211V30.2344H201.445V27.6406H195.758V26.25H208.664ZM197.133 22.4688C197.125 20.6953 199.156 19.5781 202.195 19.5781C205.25 19.5781 207.258 20.6953 207.258 22.4688C207.258 24.25 205.25 25.3516 202.195 25.3438C199.156 25.3516 197.125 24.25 197.133 22.4688ZM197.336 33.1094V28.9219H199.086V31.6875H207.242V33.1094H197.336ZM199.008 22.4688C198.992 23.4062 200.258 23.9531 202.195 23.9531C204.148 23.9531 205.406 23.4062 205.398 22.4688C205.406 21.5 204.148 20.9531 202.195 20.9531C200.258 20.9531 198.992 21.5 199.008 22.4688ZM222.508 30.3125V31.75H209.602V30.3125H215.164V28.0156H211.133V23.3906H219.258V21.6406H211.102V20.2344H220.977V24.7656H212.867V26.5938H221.305V28.0156H216.883V30.3125H222.508ZM234.898 25.8906V27.2812H224.992V20.5H234.789V21.9062H226.711V25.8906H234.898ZM223.43 31.5938V30.1562H236.336V31.5938H223.43Z" fill="white"/>
<path d="M26 15.5C20.1997 15.5 15.5 20.1997 15.5 26C15.5 31.8003 20.1997 36.5 26 36.5C31.8003 36.5 36.5 31.8003 36.5 26C36.5 20.1997 31.8003 15.5 26 15.5ZM22.0156 30.5886C21.9512 30.6985 21.859 30.7895 21.7482 30.8524C21.6375 30.9154 21.5121 30.9481 21.3847 30.9472C21.2549 30.9483 21.1273 30.9133 21.0162 30.8459C20.9336 30.798 20.8612 30.7343 20.8032 30.6583C20.7453 30.5824 20.7029 30.4957 20.6785 30.4034C20.6541 30.311 20.6482 30.2147 20.6611 30.12C20.674 30.0254 20.7055 29.9342 20.7537 29.8517L21.4705 28.6602C21.5067 28.5987 21.5584 28.5477 21.6204 28.5123C21.6824 28.477 21.7525 28.4585 21.8239 28.4586H21.9298C22.4497 28.4586 22.8134 28.7712 22.9194 29.0741L22.0156 30.5886ZM28.0836 28.2448L23.39 28.25H20.2705C20.1723 28.2504 20.0751 28.2309 19.9847 28.1926C19.8944 28.1543 19.8127 28.0981 19.7447 28.0273C19.6767 27.9565 19.6238 27.8726 19.5892 27.7808C19.5546 27.6889 19.5391 27.591 19.5434 27.493C19.5584 27.0992 19.902 26.8011 20.2934 26.8011H22.5547L25.2355 22.2378L24.3673 20.7589C24.1719 20.4219 24.2586 19.9775 24.5938 19.7656C24.6764 19.7122 24.769 19.676 24.8659 19.6593C24.9629 19.6425 25.0622 19.6456 25.158 19.6682C25.2538 19.6908 25.344 19.7326 25.4232 19.791C25.5024 19.8494 25.569 19.9232 25.6189 20.008L26.083 20.8006H26.0881L26.5527 20.008C26.6027 19.9236 26.6691 19.8502 26.7481 19.7921C26.8271 19.734 26.917 19.6924 27.0124 19.6698C27.1078 19.6472 27.2068 19.644 27.3034 19.6605C27.4001 19.677 27.4925 19.7127 27.575 19.7656C27.9083 19.9775 27.9941 20.4219 27.7972 20.7603L26.9291 22.2392L26.0853 23.6778L24.253 26.8025V26.8077H26.9534C27.2919 26.8077 27.7161 26.9895 27.8877 27.282L27.9027 27.3125C28.0541 27.5698 28.1398 27.7466 28.1398 28.0039C28.1374 28.0875 28.1187 28.1698 28.085 28.2463L28.0836 28.2448ZM31.7281 28.25H30.4573V28.2552L31.3864 29.8353C31.4863 30.0017 31.5169 30.2007 31.4716 30.3895C31.4263 30.5782 31.3087 30.7416 31.1441 30.8445C31.03 30.9141 30.8989 30.9509 30.7653 30.9509C30.6383 30.9509 30.5134 30.918 30.4028 30.8554C30.2923 30.7928 30.1998 30.7027 30.1344 30.5938L28.7614 28.2566L27.9083 26.8034L26.8077 24.9219C26.6482 24.6532 26.5616 24.3476 26.5562 24.0353C26.5509 23.7229 26.6271 23.4146 26.7772 23.1406C26.9947 22.7567 27.1611 22.6559 27.1611 22.6559L29.6094 26.7969H31.7145C32.1083 26.7969 32.4463 27.0997 32.4645 27.4883C32.4683 27.5871 32.4521 27.6856 32.4168 27.778C32.3816 27.8704 32.328 27.9546 32.2594 28.0258C32.1907 28.0969 32.1084 28.1535 32.0174 28.192C31.9263 28.2305 31.8284 28.2503 31.7295 28.25H31.7281Z" fill="white"/>
</svg>
