<svg width="28" height="28" viewBox="0 0 28 28" fill="none" xmlns="http://www.w3.org/2000/svg">
<path d="M26.32 14.2917C26.32 13.3817 26.2383 12.5067 26.0867 11.6667H14V16.6308H20.9067C20.6092 18.235 19.705 19.5942 18.3458 20.5042V23.7242H22.4933C24.92 21.49 26.32 18.2 26.32 14.2917Z" fill="#4285F4"/>
<path d="M13.9996 26.8333C17.4646 26.8333 20.3696 25.6842 22.4929 23.7242L18.3454 20.5042C17.1962 21.2742 15.7262 21.7292 13.9996 21.7292C10.6571 21.7292 7.82792 19.4717 6.81875 16.4383H2.53125V19.7633C4.64292 23.9575 8.98292 26.8333 13.9996 26.8333Z" fill="#34A853"/>
<path d="M6.81949 16.4383C6.56283 15.6683 6.41699 14.8458 6.41699 14C6.41699 13.1542 6.56283 12.3317 6.81949 11.5617V8.23667H2.53199C1.63366 10.025 1.1662 11.9987 1.16699 14C1.16699 16.0708 1.66283 18.0308 2.53199 19.7633L6.81949 16.4383Z" fill="#FBBC05"/>
<path d="M13.9996 6.27083C15.8837 6.27083 17.5754 6.91833 18.9054 8.19L22.5863 4.50917C20.3638 2.43833 17.4587 1.16667 13.9996 1.16667C8.98292 1.16667 4.64292 4.0425 2.53125 8.23667L6.81875 11.5617C7.82792 8.52834 10.6571 6.27083 13.9996 6.27083Z" fill="#EA4335"/>
</svg>
