<svg width="76" height="16" viewBox="0 0 76 16" fill="none" xmlns="http://www.w3.org/2000/svg">
<path d="M10.1758 1.26953L9.62891 5.39062C9.4401 5.33854 9.2513 5.30273 9.0625 5.2832C8.8737 5.26367 8.6849 5.25391 8.49609 5.25391C8.01432 5.25391 7.55534 5.31901 7.11914 5.44922C6.68294 5.57292 6.29557 5.76497 5.95703 6.02539C5.625 6.28581 5.35807 6.61133 5.15625 7.00195C4.96094 7.39258 4.86328 7.85156 4.86328 8.37891C4.86328 8.71745 4.91536 9.01042 5.01953 9.25781C5.13021 9.50521 5.2832 9.71029 5.47852 9.87305C5.67383 10.0358 5.90495 10.1562 6.17188 10.2344C6.4388 10.3125 6.73177 10.3516 7.05078 10.3516C7.29167 10.3516 7.54232 10.3255 7.80273 10.2734C8.06315 10.2214 8.32031 10.153 8.57422 10.0684C8.82812 9.98372 9.07552 9.88607 9.31641 9.77539C9.55729 9.66471 9.77865 9.55078 9.98047 9.43359L9.58984 14.0234C9.33594 14.1536 9.05924 14.2708 8.75977 14.375C8.4668 14.4727 8.16406 14.5605 7.85156 14.6387C7.53906 14.7103 7.22656 14.7656 6.91406 14.8047C6.60156 14.8438 6.30208 14.8633 6.01562 14.8633C5.1888 14.8633 4.41732 14.7103 3.70117 14.4043C2.98503 14.0983 2.36328 13.6784 1.83594 13.1445C1.30859 12.6107 0.891927 11.9824 0.585938 11.2598C0.286458 10.5306 0.136719 9.74609 0.136719 8.90625C0.136719 7.79297 0.296224 6.74479 0.615234 5.76172C0.934245 4.77214 1.40299 3.90625 2.02148 3.16406C2.63997 2.42188 3.40495 1.83594 4.31641 1.40625C5.23438 0.976562 6.28906 0.761719 7.48047 0.761719C7.92969 0.761719 8.38867 0.797526 8.85742 0.869141C9.33268 0.940755 9.77214 1.07422 10.1758 1.26953ZM19.375 9.43359L18.9648 13.7695L10.7422 14.4141C10.7812 12.1419 10.8236 9.88281 10.8691 7.63672C10.9212 5.39062 10.9831 3.13151 11.0547 0.859375H16.1328C15.9831 2.28516 15.8398 3.71094 15.7031 5.13672C15.5664 6.55599 15.4688 7.98828 15.4102 9.43359C15.7161 9.44661 16.0189 9.45312 16.3184 9.45312C16.6178 9.45312 16.9206 9.45312 17.2266 9.45312C17.5911 9.45312 17.9492 9.44987 18.3008 9.44336C18.6523 9.43685 19.0104 9.43359 19.375 9.43359ZM32.1484 14.1602L27.3047 14.7852L26.7188 12.5781H24.4922L24.0039 14.7852L19.0234 14.2969L22.9102 1.28906L28.3398 1.01562L32.1484 14.1602ZM26.3672 9.58984L25.625 6.19141L24.9023 9.58984H26.3672ZM43.6914 1.77734L38.3203 9.27734L38.0664 15.3906H33.4375L33.5547 9.31641L30.7617 2.07031L35.7422 1.44531L36.5234 5.66406L39.0039 1.44531L43.6914 1.77734ZM48.5645 1.25L47.4902 14.5508L43.3691 14.7656V1.52344L48.5645 1.25ZM62.5293 0.996094L61.8262 14.2383L56.709 14.707L53.9746 7.61719L53.5449 14.8438H49.1504L49.502 0.996094L54.3848 0.761719L57.7637 7.79297L57.9199 1.15234L62.5293 0.996094ZM75.1172 13.0078C74.8112 13.3919 74.4336 13.7272 73.9844 14.0137C73.5352 14.3001 73.0534 14.5378 72.5391 14.7266C72.0247 14.9154 71.4974 15.0553 70.957 15.1465C70.4167 15.2441 69.9023 15.293 69.4141 15.293C68.4701 15.293 67.6009 15.1237 66.8066 14.7852C66.0124 14.4466 65.3255 13.9811 64.7461 13.3887C64.1732 12.7897 63.724 12.0866 63.3984 11.2793C63.0729 10.472 62.9102 9.60286 62.9102 8.67188C62.9102 7.96224 62.9915 7.26888 63.1543 6.5918C63.3171 5.9082 63.5482 5.26693 63.8477 4.66797C64.1536 4.0625 64.5247 3.50911 64.9609 3.00781C65.3971 2.5 65.8919 2.0638 66.4453 1.69922C66.9987 1.33464 67.6042 1.05143 68.2617 0.849609C68.9193 0.647786 69.6224 0.546875 70.3711 0.546875C70.651 0.546875 70.9505 0.559896 71.2695 0.585938C71.5885 0.605469 71.9043 0.644531 72.2168 0.703125C72.5358 0.755208 72.8451 0.830078 73.1445 0.927734C73.444 1.02539 73.7174 1.14583 73.9648 1.28906L73.6914 5.01953C73.3268 4.88281 72.9492 4.79167 72.5586 4.74609C72.1745 4.69401 71.7969 4.66797 71.4258 4.66797C70.9049 4.66797 70.4167 4.74935 69.9609 4.91211C69.5117 5.06836 69.1178 5.29622 68.7793 5.5957C68.4473 5.89518 68.1836 6.25977 67.9883 6.68945C67.793 7.11914 67.6953 7.60417 67.6953 8.14453C67.6953 8.48307 67.7409 8.81185 67.832 9.13086C67.9232 9.44336 68.0599 9.72331 68.2422 9.9707C68.431 10.2116 68.6621 10.4069 68.9355 10.5566C69.2155 10.7064 69.5378 10.7812 69.9023 10.7812C70.1497 10.7812 70.4036 10.7487 70.6641 10.6836C70.931 10.6185 71.1589 10.5078 71.3477 10.3516L71.3867 9.58984L69.043 9.55078L69.1602 6.62109C70.1302 6.58854 71.1003 6.5625 72.0703 6.54297C73.0404 6.51693 74.0169 6.48438 75 6.44531L75.1172 13.0078Z" fill="white"/>
</svg>
