<svg width="312" height="52" viewBox="0 0 312 52" fill="none" xmlns="http://www.w3.org/2000/svg">
<rect x="0.5" y="0.5" width="311" height="51" rx="7.5" fill="white"/>
<path d="M76.3359 32V20.6875H80.5859C83.1797 20.6875 84.5625 22.2656 84.5703 24.4375C84.5625 26.6016 83.1641 28.1719 80.5547 28.1719H78.3672V32H76.3359ZM78.3672 26.5H80.2734C81.8047 26.4922 82.4922 25.6328 82.4922 24.4375C82.4922 23.2266 81.8047 22.3906 80.2734 22.3906H78.3672V26.5ZM88.1172 20.6875V32H86.1172V20.6875H88.1172ZM89.6328 29.6094C89.6328 27.7031 91.2188 27.1484 92.7891 27.0469C93.3828 27 94.5938 26.9453 94.9688 26.9297L94.9609 26.25C94.9609 25.4062 94.4219 24.9219 93.4297 24.9219C92.5391 24.9219 91.9922 25.3281 91.8359 25.9375H89.9141C90.0547 24.4922 91.3516 23.4062 93.4766 23.4062C95.0859 23.4062 96.9453 24.0703 96.9453 26.3281V32H95.0391V30.8281H94.9766C94.6016 31.5469 93.8125 32.1719 92.4766 32.1719C90.8594 32.1719 89.6328 31.2891 89.6328 29.6094ZM91.5547 29.5938C91.5547 30.3281 92.1562 30.7031 92.9922 30.7031C94.2031 30.7031 94.9766 29.9062 94.9766 28.9531L94.9688 28.2578C94.6094 28.2734 93.5 28.3438 93.1016 28.375C92.1562 28.4531 91.5547 28.8516 91.5547 29.5938ZM99.7109 35.1875C99.3125 35.1797 98.9375 35.1719 98.6797 35.1406V33.5469C98.9219 33.5703 99.2578 33.5703 99.5234 33.5781C100.008 33.5703 100.414 33.5391 100.758 32.625L100.93 32.1719L97.8359 23.5156H99.9453L101.914 29.9219H102.008L103.977 23.5156H106.086L102.68 33.0312C102.195 34.3828 101.305 35.1797 99.7109 35.1875ZM117.383 23.7969C117.281 22.8203 116.461 22.2578 115.242 22.2656C113.953 22.2578 113.188 22.8828 113.18 23.7344C113.172 24.6875 114.18 25.0781 115.117 25.2969L116.18 25.5781C117.867 25.9688 119.492 26.8594 119.492 28.8281C119.492 30.8125 117.922 32.1719 115.211 32.1719C112.578 32.1719 110.906 30.9062 110.82 28.6719H112.82C112.914 29.8516 113.906 30.4297 115.195 30.4375C116.531 30.4297 117.453 29.7812 117.461 28.8125C117.453 27.9219 116.641 27.5469 115.414 27.2344L114.133 26.9062C112.273 26.4219 111.117 25.4844 111.117 23.8594C111.117 21.8594 112.891 20.5312 115.273 20.5312C117.672 20.5312 119.305 21.8828 119.336 23.7969H117.383ZM125.32 23.5156V25.0469H123.648V29.4531C123.648 30.2656 124.055 30.4297 124.555 30.4375C124.789 30.4453 125.18 30.4219 125.43 30.4062V32.0312C125.195 32.0703 124.812 32.1172 124.305 32.1094C122.805 32.1172 121.648 31.375 121.664 29.7812V25.0469H120.445V23.5156H121.664V21.4844H123.648V23.5156H125.32ZM130.461 32.1719C127.984 32.1719 126.398 30.4141 126.398 27.7969C126.398 25.1562 127.984 23.4062 130.461 23.4062C132.945 23.4062 134.531 25.1562 134.523 27.7969C134.531 30.4141 132.945 32.1719 130.461 32.1719ZM128.414 27.7812C128.414 29.3359 129.094 30.5781 130.477 30.5781C131.836 30.5781 132.516 29.3359 132.508 27.7812C132.516 26.2266 131.836 24.9766 130.477 24.9844C129.094 24.9766 128.414 26.2266 128.414 27.7812ZM136.07 32V23.5156H138.008V24.9219H138.102C138.406 23.9453 139.219 23.3906 140.195 23.3906C140.414 23.3906 140.727 23.4141 140.914 23.4375V25.2812C140.734 25.2188 140.32 25.1641 139.992 25.1562C138.883 25.1641 138.07 25.9297 138.07 27V32H136.07ZM145.586 32.1719C143.031 32.1719 141.461 30.4688 141.461 27.8125C141.461 25.1875 143.055 23.4062 145.477 23.4062C147.555 23.4062 149.352 24.7109 149.352 27.6875V28.3125H143.43C143.461 29.7578 144.312 30.6172 145.602 30.6094C146.477 30.6172 147.062 30.2422 147.32 29.7344H149.273C148.914 31.2031 147.555 32.1719 145.586 32.1719ZM143.438 26.9531H147.445C147.438 25.7969 146.656 24.9531 145.508 24.9531C144.312 24.9531 143.508 25.875 143.438 26.9531ZM162.602 19.2656V33.3906H160.93V19.2656H162.602ZM150.555 25.375C150.555 22.2656 151.758 20.3359 153.602 20.3438C155.312 20.3359 156.477 21.9375 156.68 24.5781H158.039V19.5156H159.695V32.7031H158.039V25.9844H156.695C156.531 28.7422 155.352 30.4297 153.602 30.4219C151.758 30.4297 150.555 28.4922 150.555 25.375ZM152.164 25.375C152.156 27.5859 152.703 28.7734 153.602 28.7656C154.539 28.7734 155.094 27.5859 155.102 25.375C155.094 23.1719 154.539 21.9766 153.602 21.9844C152.703 21.9766 152.156 23.1719 152.164 25.375ZM169.461 22.6562C169.453 25.2812 170.711 27.8594 172.961 28.8438L171.914 30.2344C170.32 29.4531 169.195 27.9531 168.594 26.1016C167.977 28.0547 166.82 29.6797 165.195 30.5L164.102 29.0938C166.406 28.0156 167.688 25.2969 167.695 22.6562V20.4062H169.461V22.6562ZM171.398 25.2344V23.8281H174.367V19.2656H176.086V33.4062H174.367V25.2344H171.398ZM192.93 19.2656V24.625H195.102V26.0469H192.93V33.4062H191.195V19.2656H192.93ZM182.445 29.9531V20.6094H189.055V22.0156H184.18V28.5C186.375 28.4922 188.117 28.3828 190.055 28.0469L190.258 29.5156C188.062 29.8906 186.164 29.9531 183.617 29.9531H182.445ZM208.586 26.25V27.6406H203.133V30.2344H201.367V27.6406H195.68V26.25H208.586ZM197.055 22.4688C197.047 20.6953 199.078 19.5781 202.117 19.5781C205.172 19.5781 207.18 20.6953 207.18 22.4688C207.18 24.25 205.172 25.3516 202.117 25.3438C199.078 25.3516 197.047 24.25 197.055 22.4688ZM197.258 33.1094V28.9219H199.008V31.6875H207.164V33.1094H197.258ZM198.93 22.4688C198.914 23.4062 200.18 23.9531 202.117 23.9531C204.07 23.9531 205.328 23.4062 205.32 22.4688C205.328 21.5 204.07 20.9531 202.117 20.9531C200.18 20.9531 198.914 21.5 198.93 22.4688ZM222.43 30.3125V31.75H209.523V30.3125H215.086V28.0156H211.055V23.3906H219.18V21.6406H211.023V20.2344H220.898V24.7656H212.789V26.5938H221.227V28.0156H216.805V30.3125H222.43ZM234.82 25.8906V27.2812H224.914V20.5H234.711V21.9062H226.633V25.8906H234.82ZM223.352 31.5938V30.1562H236.258V31.5938H223.352Z" fill="black"/>
<path d="M16.25 16.7886V35.2105C16.2501 35.2505 16.262 35.2895 16.2843 35.3227C16.3065 35.3559 16.338 35.3819 16.3749 35.3972C16.4118 35.4126 16.4524 35.4167 16.4917 35.4091C16.5309 35.4015 16.567 35.3825 16.5955 35.3544L26.1875 26L16.5955 16.6447C16.567 16.6166 16.5309 16.5976 16.4917 16.59C16.4524 16.5824 16.4118 16.5865 16.3749 16.6019C16.338 16.6172 16.3065 16.6432 16.2843 16.6764C16.262 16.7096 16.2501 16.7486 16.25 16.7886ZM30.2094 22.1563L18.1822 15.53L18.1747 15.5258C17.9675 15.4133 17.7706 15.6936 17.9403 15.8567L27.3683 24.8717L30.2094 22.1563ZM17.9412 36.1433C17.7706 36.3064 17.9675 36.5867 18.1756 36.4742L18.1831 36.47L30.2094 29.8438L27.3683 27.1274L17.9412 36.1433ZM35.0647 24.8281L31.7061 22.9785L28.5481 26L31.7061 29.0202L35.0647 27.1719C35.9783 26.667 35.9783 25.333 35.0647 24.8281Z" fill="black"/>
<rect x="0.5" y="0.5" width="311" height="51" rx="7.5" stroke="#D9D9D9"/>
</svg>
