<svg width="62" height="20" viewBox="0 0 62 20" fill="none" xmlns="http://www.w3.org/2000/svg">
<path fill-rule="evenodd" clip-rule="evenodd" d="M23.3128 5.35268C20.8243 3.91597 17.7584 3.91597 15.27 5.35268L13.3329 6.47106L13.3066 6.46003V11.5982L25.2761 11.5982V8.97529L20.965 8.97529L25.2761 6.48622L23.3128 5.35268Z" fill="#3C95FF"/>
<path fill-rule="evenodd" clip-rule="evenodd" d="M55.9313 13.0894L55.9313 15.616L55.9313 20L57.8946 18.8665C60.3073 17.4735 61.8217 14.9353 61.9118 12.1632L61.916 12.1607L61.916 11.9012L61.916 9.63411L61.916 5.25013L55.9313 8.70539L49.9467 5.25014L49.9467 11.5112L55.9313 11.5112L55.9313 13.0894Z" fill="#3C95FF"/>
<path fill-rule="evenodd" clip-rule="evenodd" d="M36.7265 5.33441C37.9607 6.04702 38.7212 7.36392 38.7213 8.78914L38.7216 11.5606H38.6746V11.5738L33.4629 11.5606H32.7368V11.5588L26.7051 11.5434V9.02167L28.9243 7.74039L26.7521 6.48626L28.7471 5.33441C31.216 3.90904 34.2577 3.90904 36.7265 5.33441Z" fill="#3C95FF"/>
<path fill-rule="evenodd" clip-rule="evenodd" d="M5.98485 4.78916L5.98485 4.78956C8.62169 3.31164 11.8804 5.17022 11.9678 8.17528L11.9696 8.17629L11.9697 11.6315L6.23485 11.6315V9.65263H5.73217V11.6315L0 11.6315L5.52467e-05 8.17624L9.00582e-05 8.17623L8.25917e-05 4.78917L5.98485 4.78916Z" fill="#3C95FF"/>
<path fill-rule="evenodd" clip-rule="evenodd" d="M46.5833 6.84039L49.587 5.11836L47.6009 3.97166C47.2644 3.77739 46.9174 3.6094 46.5626 3.46767L40.5985 0L40.5985 3.46679C40.243 3.6087 39.8952 3.77699 39.5581 3.97165L37.5947 5.10519L40.588 6.83333C40.5915 6.83536 40.595 6.83739 40.5985 6.83941L40.5985 11.5608L46.5833 11.5608V6.93593V6.84039Z" fill="#3C95FF"/>
</svg>
