<svg width="100" height="33" viewBox="0 0 100 33" fill="none" xmlns="http://www.w3.org/2000/svg">
<path fill-rule="evenodd" clip-rule="evenodd" d="M37.6518 8.64507C33.6328 6.32469 28.6811 6.32469 24.6621 8.64506L21.5336 10.4513L21.4912 10.4335V18.732L40.8227 18.732V14.4958L33.8599 14.4958L40.8227 10.4758L37.6518 8.64507Z" fill="white"/>
<path fill-rule="evenodd" clip-rule="evenodd" d="M90.3333 21.1402L90.3333 25.2208L90.3333 32.3012L93.5042 30.4705C97.4008 28.2208 99.8467 24.1214 99.9922 19.6443L99.999 19.6403L99.999 19.2212L99.999 15.5597L99.999 8.47928L90.3334 14.0597L80.6678 8.4793L80.6678 18.5913L90.3333 18.5913L90.3333 21.1402Z" fill="white"/>
<path fill-rule="evenodd" clip-rule="evenodd" d="M59.316 8.61559C61.3095 9.7665 62.5376 11.8934 62.5378 14.1952L62.5383 18.6713H62.4623V18.6926L54.0452 18.6713H52.8725V18.6683L43.1309 18.6436V14.5707L46.715 12.5014L43.2068 10.4759L46.4289 8.61558C50.4162 6.31352 55.3288 6.31352 59.316 8.61559Z" fill="white"/>
<path fill-rule="evenodd" clip-rule="evenodd" d="M9.66591 7.73486L9.66591 7.7355C13.9246 5.34856 19.1876 8.35029 19.3288 13.2036L19.3317 13.2053L19.3317 18.7856L10.0697 18.7856L10.0697 15.5896H9.25781V18.7857L0 18.7857L8.92269e-05 13.2052L0.00014545 13.2052L0.000133391 7.73487L9.66591 7.73486Z" fill="white"/>
<path fill-rule="evenodd" clip-rule="evenodd" d="M75.2348 11.0477L80.0861 8.26647L76.8783 6.41447C76.3349 6.10073 75.7744 5.8294 75.2015 5.6005L65.5691 0L65.5691 5.59908C64.9949 5.82827 64.4332 6.10007 63.8887 6.41447L60.7178 8.2452L65.552 11.0363C65.5577 11.0395 65.5634 11.0428 65.5691 11.0461L65.5691 18.6714L75.2348 18.6714V11.202V11.0477Z" fill="white"/>
</svg>
