<svg width="64" height="63" viewBox="0 0 64 63" fill="none" xmlns="http://www.w3.org/2000/svg">
<g filter="url(#filter0_b_815_1524)">
<circle cx="30" cy="30" r="30" fill="#429DF2"/>
</g>
<path d="M16.1487 39.0411L17.6651 41.0216C17.5629 41.0796 17.4676 41.1445 17.3793 41.2163C17.2909 41.2881 17.2066 41.3641 17.1265 41.4442C16.9221 41.6486 16.755 41.871 16.6252 42.1113C16.4926 42.3488 16.4097 42.5946 16.3766 42.8488C16.3462 43.1001 16.3711 43.3515 16.4512 43.6028C16.534 43.8514 16.6873 44.0876 16.9111 44.3113C17.0547 44.4549 17.2011 44.5571 17.3503 44.6179C17.5022 44.6759 17.6541 44.698 17.806 44.6842C17.9579 44.6704 18.1071 44.6234 18.2535 44.5433C18.3999 44.4632 18.5407 44.3555 18.6761 44.2202C18.7783 44.118 18.8736 44.0006 18.962 43.868C19.0504 43.7354 19.1305 43.5973 19.2023 43.4537C19.2741 43.31 19.3376 43.1636 19.3929 43.0145C19.4481 42.8653 19.4937 42.7231 19.5296 42.5877L21.3112 44.7008C21.2587 44.8637 21.191 45.0308 21.1081 45.2021C21.0253 45.3678 20.9341 45.5335 20.8347 45.6993C20.7325 45.8622 20.6234 46.0183 20.5074 46.1675C20.3914 46.3166 20.2726 46.452 20.1511 46.5735C19.8003 46.9243 19.408 47.1867 18.9744 47.3607C18.5407 47.5347 18.0988 47.6203 17.6486 47.6176C17.1983 47.6148 16.755 47.525 16.3186 47.3483C15.8822 47.166 15.4858 46.8967 15.1295 46.5403C14.6572 46.068 14.2801 45.5556 13.9984 45.0032C13.7139 44.448 13.5454 43.8818 13.4929 43.3045C13.4405 42.7272 13.5164 42.1541 13.7208 41.5851C13.928 41.0133 14.2843 40.4747 14.7898 39.9692C14.9803 39.7786 15.1903 39.5991 15.4195 39.4306C15.6515 39.2594 15.8946 39.1295 16.1487 39.0411ZM23.5153 38.602L25.1809 40.6156L21.9658 44.3776C21.0184 43.397 20.0779 42.4206 19.1443 41.4483C18.2134 40.4733 17.2812 39.4886 16.3476 38.4942L18.5021 36.3398C19.0434 37.0082 19.5876 37.6739 20.1345 38.3368C20.6786 38.997 21.2449 39.6461 21.8332 40.2841C21.9685 40.1598 22.0997 40.0341 22.2268 39.9071C22.3539 39.78 22.4823 39.6516 22.6121 39.5218C22.7668 39.3671 22.9173 39.2138 23.0637 39.0619C23.2101 38.9099 23.3607 38.7566 23.5153 38.602ZM30.94 35.188L29.1501 37.5082L27.9651 36.8204L27.0205 37.765L27.7497 38.9086L25.4295 40.8144L21.5598 33.6467L23.7474 31.2271L30.94 35.188ZM26.5482 35.7017L24.7915 34.5748L25.9267 36.3232L26.5482 35.7017ZM30.5836 25.0371L31.4869 30.4979L33.9728 33.1992L32.0089 35.1631L29.4816 32.5363L25.2223 30.647L27.0702 28.2688L29.1915 29.7272L28.454 26.885L30.5836 25.0371ZM32.4274 22.7459L37.6147 28.8447L35.9574 30.6843L30.3392 25.0661L32.4274 22.7459ZM38.2444 16.7134L43.5643 22.6299L41.5921 24.9998L37.4241 23.152L40.3077 26.4002L38.4433 28.2647L32.7174 22.2405L34.6896 20.0694L39.1062 21.619L36.3551 18.7353L38.2444 16.7134ZM48.6812 16.469C48.7143 16.7618 48.6964 17.0642 48.6273 17.3763C48.5582 17.6885 48.4547 17.9937 48.3166 18.292C48.1785 18.5903 48.0141 18.8734 47.8235 19.1413C47.6357 19.412 47.4382 19.651 47.231 19.8581C46.8305 20.2586 46.39 20.5556 45.9094 20.7489C45.4287 20.9423 44.9399 21.0362 44.4427 21.0306C43.9455 21.0196 43.4566 20.9119 42.976 20.7075C42.4954 20.5031 42.0576 20.2034 41.6626 19.8084C41.3615 19.5073 41.1019 19.1786 40.8837 18.8223C40.6627 18.4632 40.4887 18.0931 40.3616 17.7119C40.2346 17.3252 40.1572 16.933 40.1296 16.5353C40.0992 16.1348 40.1241 15.7398 40.2042 15.3503C40.2843 14.9608 40.421 14.5838 40.6143 14.2192C40.8077 13.8546 41.0632 13.5135 41.3808 13.1958C41.4996 13.0771 41.6322 12.9555 41.7786 12.8312C41.9222 12.7042 42.0728 12.5868 42.2302 12.4791C42.3876 12.3658 42.5506 12.2664 42.7191 12.1808C42.8876 12.0951 43.0547 12.0302 43.2204 11.986L44.6871 13.6847C44.4744 13.7814 44.2756 13.9029 44.0905 14.0493C43.9054 14.1902 43.7342 14.3394 43.5767 14.4968C43.3558 14.7178 43.1831 14.9595 43.0588 15.2219C42.9345 15.4787 42.8641 15.7425 42.8475 16.0132C42.8337 16.2811 42.8765 16.5477 42.976 16.8129C43.0754 17.078 43.2398 17.3252 43.469 17.5545C43.6126 17.6981 43.7715 17.8183 43.9455 17.915C44.1167 18.0089 44.2935 18.0696 44.4758 18.0973C44.6581 18.1193 44.839 18.1042 45.0186 18.0517C45.2009 17.9964 45.3694 17.8915 45.524 17.7368C45.629 17.6318 45.7229 17.5103 45.8058 17.3722C45.8914 17.2313 45.9411 17.0877 45.9549 16.9413L45.6483 16.6016L44.6374 17.5794L43.4442 16.2867C43.8419 15.8613 44.2424 15.4387 44.6457 15.0189C45.0462 14.5962 45.4467 14.1681 45.8472 13.7345L48.6812 16.469Z" fill="#FFBB54"/>
<path d="M26.1487 49.0411L27.6651 51.0216C27.5629 51.0796 27.4676 51.1445 27.3793 51.2163C27.2909 51.2881 27.2066 51.3641 27.1265 51.4442C26.9221 51.6486 26.755 51.871 26.6252 52.1113C26.4926 52.3488 26.4097 52.5946 26.3766 52.8488C26.3462 53.1001 26.3711 53.3515 26.4512 53.6028C26.534 53.8514 26.6873 54.0876 26.9111 54.3113C27.0547 54.4549 27.2011 54.5571 27.3503 54.6179C27.5022 54.6759 27.6541 54.698 27.806 54.6842C27.9579 54.6704 28.1071 54.6234 28.2535 54.5433C28.3999 54.4632 28.5407 54.3555 28.6761 54.2202C28.7783 54.118 28.8736 54.0006 28.962 53.868C29.0504 53.7354 29.1305 53.5973 29.2023 53.4537C29.2741 53.31 29.3376 53.1636 29.3929 53.0145C29.4481 52.8653 29.4937 52.7231 29.5296 52.5877L31.3112 54.7008C31.2587 54.8637 31.191 55.0308 31.1081 55.2021C31.0253 55.3678 30.9341 55.5335 30.8347 55.6993C30.7325 55.8622 30.6234 56.0183 30.5074 56.1675C30.3914 56.3166 30.2726 56.452 30.1511 56.5735C29.8003 56.9243 29.408 57.1867 28.9744 57.3607C28.5407 57.5347 28.0988 57.6203 27.6486 57.6176C27.1983 57.6148 26.755 57.525 26.3186 57.3483C25.8822 57.166 25.4858 56.8967 25.1295 56.5403C24.6572 56.068 24.2801 55.5556 23.9984 55.0032C23.7139 54.448 23.5454 53.8818 23.4929 53.3045C23.4405 52.7272 23.5164 52.1541 23.7208 51.5851C23.928 51.0133 24.2843 50.4747 24.7898 49.9692C24.9803 49.7786 25.1903 49.5991 25.4195 49.4306C25.6515 49.2594 25.8946 49.1295 26.1487 49.0411ZM33.5153 48.602L35.1809 50.6156L31.9658 54.3776C31.0184 53.397 30.0779 52.4206 29.1443 51.4483C28.2134 50.4733 27.2812 49.4886 26.3476 48.4942L28.5021 46.3398C29.0434 47.0082 29.5876 47.6739 30.1345 48.3368C30.6786 48.997 31.2449 49.6461 31.8332 50.2841C31.9685 50.1598 32.0997 50.0341 32.2268 49.9071C32.3539 49.78 32.4823 49.6516 32.6121 49.5218C32.7668 49.3671 32.9173 49.2138 33.0637 49.0619C33.2101 48.9099 33.3607 48.7566 33.5153 48.602ZM40.94 45.188L39.1501 47.5082L37.9651 46.8204L37.0205 47.765L37.7497 48.9086L35.4295 50.8144L31.5598 43.6467L33.7474 41.2271L40.94 45.188ZM36.5482 45.7017L34.7915 44.5748L35.9267 46.3232L36.5482 45.7017ZM40.5836 35.0371L41.4869 40.4979L43.9728 43.1992L42.0089 45.1631L39.4816 42.5363L35.2223 40.647L37.0702 38.2688L39.1915 39.7272L38.454 36.885L40.5836 35.0371ZM42.4274 32.7459L47.6147 38.8447L45.9574 40.6843L40.3392 35.0661L42.4274 32.7459ZM48.2444 26.7134L53.5643 32.6299L51.5921 34.9998L47.4241 33.152L50.3077 36.4002L48.4433 38.2647L42.7174 32.2405L44.6896 30.0694L49.1062 31.619L46.3551 28.7353L48.2444 26.7134ZM58.6812 26.469C58.7143 26.7618 58.6964 27.0642 58.6273 27.3763C58.5582 27.6885 58.4547 27.9937 58.3166 28.292C58.1785 28.5903 58.0141 28.8734 57.8235 29.1413C57.6357 29.412 57.4382 29.651 57.231 29.8581C56.8305 30.2586 56.39 30.5556 55.9094 30.7489C55.4287 30.9423 54.9399 31.0362 54.4427 31.0306C53.9455 31.0196 53.4566 30.9119 52.976 30.7075C52.4954 30.5031 52.0576 30.2034 51.6626 29.8084C51.3615 29.5073 51.1019 29.1786 50.8837 28.8223C50.6627 28.4632 50.4887 28.0931 50.3616 27.7119C50.2346 27.3252 50.1572 26.933 50.1296 26.5353C50.0992 26.1348 50.1241 25.7398 50.2042 25.3503C50.2843 24.9608 50.421 24.5838 50.6143 24.2192C50.8077 23.8546 51.0632 23.5135 51.3808 23.1958C51.4996 23.0771 51.6322 22.9555 51.7786 22.8312C51.9222 22.7042 52.0728 22.5868 52.2302 22.4791C52.3876 22.3658 52.5506 22.2664 52.7191 22.1808C52.8876 22.0951 53.0547 22.0302 53.2204 21.986L54.6871 23.6847C54.4744 23.7814 54.2756 23.9029 54.0905 24.0493C53.9054 24.1902 53.7342 24.3394 53.5767 24.4968C53.3558 24.7178 53.1831 24.9595 53.0588 25.2219C52.9345 25.4787 52.8641 25.7425 52.8475 26.0132C52.8337 26.2811 52.8765 26.5477 52.976 26.8129C53.0754 27.078 53.2398 27.3252 53.469 27.5545C53.6126 27.6981 53.7715 27.8183 53.9455 27.915C54.1167 28.0089 54.2935 28.0696 54.4758 28.0973C54.6581 28.1193 54.839 28.1042 55.0186 28.0517C55.2009 27.9964 55.3694 27.8915 55.524 27.7368C55.629 27.6318 55.7229 27.5103 55.8058 27.3722C55.8914 27.2313 55.9411 27.0877 55.9549 26.9413L55.6483 26.6016L54.6374 27.5794L53.4442 26.2867C53.8419 25.8613 54.2424 25.4387 54.6457 25.0189C55.0462 24.5962 55.4467 24.1681 55.8472 23.7345L58.6812 26.469Z" fill="#FFBB54"/>
<path d="M6.14873 29.0411L7.66514 31.0216C7.56294 31.0796 7.46765 31.1445 7.37926 31.2163C7.29087 31.2881 7.20663 31.3641 7.12652 31.4442C6.92213 31.6486 6.75502 31.871 6.6252 32.1113C6.49261 32.3488 6.40975 32.5946 6.3766 32.8488C6.34622 33.1001 6.37108 33.3515 6.45118 33.6028C6.53405 33.8514 6.68734 34.0876 6.91108 34.3113C7.05471 34.4549 7.2011 34.5571 7.35026 34.6179C7.50217 34.6759 7.65409 34.698 7.80601 34.6842C7.95793 34.6704 8.10708 34.6234 8.25348 34.5433C8.39987 34.4632 8.54074 34.3555 8.67608 34.2202C8.77828 34.118 8.87357 34.0006 8.96196 33.868C9.05035 33.7354 9.13045 33.5973 9.20227 33.4537C9.27408 33.31 9.33761 33.1636 9.39286 33.0145C9.4481 32.8653 9.49367 32.7231 9.52958 32.5877L11.3112 34.7008C11.2587 34.8637 11.191 35.0308 11.1081 35.2021C11.0253 35.3678 10.9341 35.5335 10.8347 35.6993C10.7325 35.8622 10.6234 36.0183 10.5074 36.1675C10.3914 36.3166 10.2726 36.452 10.1511 36.5735C9.80027 36.9243 9.40805 37.1867 8.97439 37.3607C8.54074 37.5347 8.0988 37.6203 7.64857 37.6176C7.19834 37.6148 6.75502 37.525 6.3186 37.3483C5.88218 37.166 5.48582 36.8967 5.1295 36.5403C4.65717 36.068 4.28014 35.5556 3.99841 35.0032C3.71391 34.448 3.54541 33.8818 3.49293 33.3045C3.44045 32.7272 3.51641 32.1541 3.72081 31.5851C3.92797 31.0133 4.28429 30.4747 4.78976 29.9692C4.98034 29.7786 5.19027 29.5991 5.41952 29.4306C5.65154 29.2594 5.89461 29.1295 6.14873 29.0411ZM13.5153 28.602L15.1809 30.6156L11.9658 34.3776C11.0184 33.397 10.0779 32.4206 9.14426 31.4483C8.21342 30.4733 7.2812 29.4886 6.3476 28.4942L8.50207 26.3398C9.04345 27.0082 9.58759 27.6739 10.1345 28.3368C10.6786 28.997 11.2449 29.6461 11.8332 30.2841C11.9685 30.1598 12.0997 30.0341 12.2268 29.9071C12.3539 29.78 12.4823 29.6516 12.6121 29.5218C12.7668 29.3671 12.9173 29.2138 13.0637 29.0619C13.2101 28.9099 13.3607 28.7566 13.5153 28.602ZM20.94 25.188L19.1501 27.5082L17.9651 26.8204L17.0205 27.765L17.7497 28.9086L15.4295 30.8144L11.5598 23.6467L13.7474 21.2271L20.94 25.188ZM16.5482 25.7017L14.7915 24.5748L15.9267 26.3232L16.5482 25.7017ZM20.5836 15.0371L21.4869 20.4979L23.9728 23.1992L22.0089 25.1631L19.4816 22.5363L15.2223 20.647L17.0702 18.2688L19.1915 19.7272L18.454 16.885L20.5836 15.0371ZM22.4274 12.7459L27.6147 18.8447L25.9574 20.6843L20.3392 15.0661L22.4274 12.7459ZM28.2444 6.71342L33.5643 12.6299L31.5921 14.9998L27.4241 13.152L30.3077 16.4002L28.4433 18.2647L22.7174 12.2405L24.6896 10.0694L29.1062 11.619L26.3551 8.73531L28.2444 6.71342ZM38.6812 6.46897C38.7143 6.76176 38.6964 7.06421 38.6273 7.37633C38.5582 7.68846 38.4547 7.99367 38.3166 8.29198C38.1785 8.59029 38.0141 8.87341 37.8235 9.14134C37.6357 9.41203 37.4382 9.65095 37.231 9.85811C36.8305 10.2586 36.39 10.5556 35.9094 10.7489C35.4287 10.9423 34.9399 11.0362 34.4427 11.0306C33.9455 11.0196 33.4566 10.9119 32.976 10.7075C32.4954 10.5031 32.0576 10.2034 31.6626 9.8084C31.3615 9.50732 31.1019 9.17863 30.8837 8.82231C30.6627 8.46324 30.4887 8.09311 30.3616 7.71193C30.2346 7.32524 30.1572 6.93301 30.1296 6.53526C30.0992 6.13475 30.1241 5.73977 30.2042 5.35031C30.2843 4.96085 30.421 4.58382 30.6143 4.21921C30.8077 3.85461 31.0632 3.51349 31.3808 3.19584C31.4996 3.07707 31.6322 2.95554 31.7786 2.83124C31.9222 2.70418 32.0728 2.58679 32.2302 2.47907C32.3876 2.36582 32.5506 2.26638 32.7191 2.18076C32.8876 2.09513 33.0547 2.03022 33.2204 1.98603L34.6871 3.68474C34.4744 3.78141 34.2756 3.90295 34.0905 4.04934C33.9054 4.19021 33.7342 4.33937 33.5767 4.49681C33.3558 4.71778 33.1831 4.95947 33.0588 5.22187C32.9345 5.47875 32.8641 5.74253 32.8475 6.01322C32.8337 6.28115 32.8765 6.54769 32.976 6.81286C33.0754 7.07802 33.2398 7.32524 33.469 7.55449C33.6126 7.69812 33.7715 7.81828 33.9455 7.91495C34.1167 8.00886 34.2935 8.06963 34.4758 8.09725C34.6581 8.11935 34.839 8.10416 35.0186 8.05168C35.2009 7.99643 35.3694 7.89147 35.524 7.73679C35.629 7.63183 35.7229 7.5103 35.8058 7.37219C35.8914 7.23132 35.9411 7.08769 35.9549 6.9413L35.6483 6.60156L34.6374 7.57935L33.4442 6.28667C33.8419 5.8613 34.2424 5.4387 34.6457 5.01885C35.0462 4.59624 35.4467 4.16811 35.8472 3.73446L38.6812 6.46897Z" fill="#FFBB54"/>
<defs>
<filter id="filter0_b_815_1524" x="-8" y="-8" width="76" height="76" filterUnits="userSpaceOnUse" color-interpolation-filters="sRGB">
<feFlood flood-opacity="0" result="BackgroundImageFix"/>
<feGaussianBlur in="BackgroundImageFix" stdDeviation="4"/>
<feComposite in2="SourceAlpha" operator="in" result="effect1_backgroundBlur_815_1524"/>
<feBlend mode="normal" in="SourceGraphic" in2="effect1_backgroundBlur_815_1524" result="shape"/>
</filter>
</defs>
</svg>
